<?xml version="1.0" encoding="utf-8"?>
<!-- Generator: Adobe Illustrator 19.0.0, SVG Export Plug-In . SVG Version: 6.00 Build 0)  -->
<svg version="1.1" id="Layer_1" xmlns="http://www.w3.org/2000/svg" xmlns:xlink="http://www.w3.org/1999/xlink" x="0px" y="0px"
	 viewBox="0 0 500 500" style="enable-background:new 0 0 500 500;" xml:space="preserve">
<style type="text/css">
	.st0{fill:#ED1C24;}
</style>
<g id="XMLID_1_">
	<path id="XMLID_3_" class="st0" d="M67.5,292.7l25.4-53.5h98.2c-0.6,1.1-2.8,5.3-7.5,7.8c-4.3,2.3-10.4,2.3-10.1,2.4
		c1.7,0.8,4.1,1.7,5.6,4.3c1.8,2.9,2,5.8,0.7,9.1c-1.2,3.2-13.9,30-13.9,30H136l16.1-34.1h-39.4l-16.2,34.1H67.5z"/>
	<path id="XMLID_4_" class="st0" d="M97.8,229l10.3-21.8H186c0,0,6.2-0.2,9.9,2.5c3.5,2.5,3.8,6.1,3.7,8.4c-0.3,4.5-3.4,11-3.4,11
		H97.8z"/>
	<path id="XMLID_5_" class="st0" d="M218.5,207.2L208.2,229h98.7c0,0,4.1-8.3,2.9-13.4c-1.3-5.7-5.5-7.2-9-7.9
		c-3.5-0.6-13.3-0.5-13.3-0.5H218.5z"/>
	<path id="XMLID_6_" class="st0" d="M272.5,239.2h29.6l-15,31.5c0,0-3.6,7.6-6.3,10.8c-2.7,3.2-5.3,6.2-11.2,8.7
		c-8.1,3.3-21.1,2.6-22.7,2.5c-1.6,0-69.1,0-69.1,0l25.5-53.5h30.1L218.6,271h38.9L272.5,239.2L272.5,239.2z"/>
	<path id="XMLID_7_" class="st0" d="M422.2,229l10.3-21.8h-74.7c0,0-15.1,0.3-22.7,2.9c-6.6,2.3-10.9,5.8-13.7,10.1
		c-1.9,2.8-4.5,8.8-4.5,8.8L422.2,229L422.2,229z"/>
	<path id="XMLID_8_" class="st0" d="M312.1,239.2h87.1c0,0,4.6,0.1,7.3,1.2c2.7,1.1,4.5,2.8,5.3,5.2c0.8,2.5,1.4,5.2-2.3,13
		c-3.6,7.8-6.3,13.7-8.4,18c-2.1,4.2-4.6,7.2-9.4,10.4c-5.3,3.5-14.5,5.7-21.8,5.7H286l10-21.8h77.4l6.3-12.3l-51.6,0
		c0,0-9.6,0.2-14.1-1.7c-3.1-1.4-4.6-3.5-5.1-5.9C308.1,246.4,312.1,239.2,312.1,239.2"/>
	<path id="XMLID_9_" class="st0" d="M412.1,292.4v-4.6c0-0.2,0-1.2,0-1.9h0l-2.2,6.6h-1.1l-2.2-6.6h0c0,0.7,0,1.7,0,1.9v4.6h-1v-7.8
		h1.5l2.2,6.6h0l2.2-6.6h1.5v7.8H412.1z"/>
	<path id="XMLID_12_" class="st0" d="M415.3,285.5h2c1.4,0,2.3,1,2.3,3c0,2-0.9,3-2.3,3h-2.1V285.5z M414.2,292.4h3.1
		c2.5,0,3.4-2.2,3.4-4c0-2.2-1.3-3.8-3.3-3.8h-3.2L414.2,292.4L414.2,292.4z"/>
</g>
</svg>
